<svg width="24" height="24" viewBox="0 0 24 24" fill="none" xmlns="http://www.w3.org/2000/svg">
<path fill-rule="evenodd" clip-rule="evenodd" d="M9.69504 4.01522C8.09146 2.41164 5.49155 2.41164 3.88797 4.01522C2.28439 5.6188 2.28439 8.21872 3.88796 9.8223L6.7915 12.7258C7.27258 13.2069 7.27258 13.9869 6.7915 14.468C6.31043 14.949 5.53045 14.949 5.04938 14.468L2.14584 11.5644C-0.419885 8.9987 -0.419885 4.83883 2.14584 2.2731C4.71157 -0.292625 8.87144 -0.292625 11.4372 2.2731L14.3407 5.17664C14.8218 5.65771 14.8218 6.43769 14.3407 6.91876C13.8596 7.39984 13.0797 7.39984 12.5986 6.91876L9.69504 4.01522Z" fill="white"/>
<path fill-rule="evenodd" clip-rule="evenodd" d="M19.8574 14.1776C21.461 15.7812 21.461 18.3811 19.8574 19.9847C18.2538 21.5883 15.6539 21.5883 14.0503 19.9847L11.1468 17.0811C10.6657 16.6001 9.88576 16.6001 9.40469 17.0811C8.92361 17.5622 8.92361 18.3422 9.40469 18.8233L12.3082 21.7268C14.874 24.2925 19.0338 24.2925 21.5995 21.7268C24.1653 19.1611 24.1653 15.0012 21.5995 12.4355L18.696 9.53195C18.2149 9.05087 17.435 9.05087 16.9539 9.53195C16.4728 10.013 16.4728 10.793 16.9539 11.2741L19.8574 14.1776Z" fill="white"/>
<path fill-rule="evenodd" clip-rule="evenodd" d="M7.66256 7.78982C8.14364 7.30875 8.92361 7.30875 9.40469 7.78982L15.7925 14.1776C16.2735 14.6587 16.2735 15.4387 15.7925 15.9197C15.3114 16.4008 14.5314 16.4008 14.0503 15.9197L7.66256 9.53195C7.18149 9.05087 7.18149 8.2709 7.66256 7.78982Z" fill="white"/>
</svg>
