<svg width="14" height="15" viewBox="0 0 14 15" fill="none" xmlns="http://www.w3.org/2000/svg">
<path d="M7.00098 0.184937C7.28431 0.184937 7.52164 0.280937 7.71298 0.472937C7.90498 0.664271 8.00098 0.901603 8.00098 1.18494L8.00098 6.18494L13.001 6.18494C13.2843 6.18494 13.522 6.28094 13.714 6.47294C13.9053 6.66427 14.001 6.9016 14.001 7.18494C14.001 7.46827 13.9053 7.70594 13.714 7.89794C13.522 8.08927 13.2843 8.18494 13.001 8.18494L8.00098 8.18494L8.00098 13.1849C8.00098 13.4683 7.90498 13.7059 7.71298 13.8979C7.52164 14.0893 7.28431 14.1849 7.00098 14.1849C6.71764 14.1849 6.47998 14.0893 6.28798 13.8979C6.09664 13.7059 6.00098 13.4683 6.00098 13.1849L6.00098 8.18494L1.00098 8.18494C0.717642 8.18494 0.48031 8.08927 0.288976 7.89794C0.0969757 7.70594 0.000975975 7.46827 0.000975951 7.18494C0.000975926 6.9016 0.0969756 6.66427 0.288976 6.47294C0.48031 6.28094 0.717642 6.18494 1.00098 6.18494L6.00098 6.18494L6.00098 1.18494C6.00098 0.901603 6.09664 0.664271 6.28798 0.472937C6.47997 0.280937 6.71764 0.184937 7.00098 0.184937Z" fill="#36AA3B"/>
</svg>
